<?xml version="1.0" encoding="utf-8"?>
<!-- Generator: Adobe Illustrator 18.0.0, SVG Export Plug-In . SVG Version: 6.00 Build 0)  -->
<!DOCTYPE svg PUBLIC "-//W3C//DTD SVG 1.1//EN" "http://www.w3.org/Graphics/SVG/1.1/DTD/svg11.dtd">
<svg version="1.1" id="Layer_1" xmlns="http://www.w3.org/2000/svg" xmlns:xlink="http://www.w3.org/1999/xlink" x="0px" y="0px"
	 viewBox="0 0 420 250" enable-background="new 0 0 420 250" xml:space="preserve">
<g>
	<path opacity="0.15" fill="#181917" enable-background="new    " d="M332.7,207.4c-0.2-3.3-1.6-6.4-3.9-8.8
		c-2.5-2.5-5.9-3.9-9.5-3.9c-3.6,0-6.9,1.4-9.5,3.9c-8.9,8.9-20.7,13.8-33.3,13.8s-24.4-4.9-33.3-13.8c-8.9-8.9-13.8-20.7-13.8-33.3
		c0-0.6,0-1.4,0.1-2.2c0-0.6,0.1-1.2,0.1-1.7v-0.3c0-0.1,0-0.2,0-0.2c0.1-0.5,0.1-1,0.2-1.5l0.1-0.3c0-0.1,0.1-0.3,0.1-0.4
		c0.1-0.5,0.1-0.9,0.2-1.3l0.1-0.3c0.1-0.2,0.1-0.4,0.1-0.6c0.1-0.5,0.2-0.9,0.3-1.3l0.1-0.2c0.1-0.2,0.1-0.4,0.2-0.6
		c0.1-0.4,0.2-0.9,0.3-1.3V153c0.1-0.3,0.2-0.5,0.2-0.8c0.1-0.4,0.2-0.8,0.3-1.2c0.1-0.3,0.2-0.6,0.3-0.9c0.1-0.4,0.3-0.8,0.4-1.2
		c0.1-0.3,0.2-0.6,0.3-0.9c0.2-0.3,0.3-0.8,0.5-1.1c0.1-0.3,0.3-0.6,0.4-0.9c0.2-0.3,0.3-0.7,0.5-1c0.2-0.3,0.3-0.6,0.5-1
		c0.2-0.3,0.3-0.7,0.5-1c0.2-0.3,0.3-0.6,0.6-1l0.1-0.1c0.2-0.3,0.3-0.6,0.5-0.9c0.2-0.3,0.4-0.6,0.6-0.9l0.1-0.2
		c0.2-0.2,0.3-0.5,0.5-0.7c0.2-0.3,0.4-0.6,0.6-0.8l0.3-0.4c0.1-0.2,0.3-0.4,0.4-0.6c0.2-0.3,0.5-0.6,0.7-0.9l0.3-0.5
		c0.1-0.2,0.2-0.3,0.3-0.5c0.3-0.3,0.6-0.7,0.9-1l0.3-0.3c0.1-0.1,0.2-0.2,0.3-0.3c0.5-0.6,1-1.1,1.6-1.6
		c8.9-8.9,20.7-13.8,33.3-13.8s24.4,4.9,33.3,13.8c2.5,2.5,5.9,3.9,9.5,3.9s6.9-1.4,9.5-3.9c0.3-0.3,0.5-0.6,0.8-0.9
		c0.1-0.1,0.1-0.2,0.2-0.2c0.2-0.3,0.5-0.6,0.7-0.9c0.1-0.1,0.1-0.1,0.1-0.2c0.2-0.3,0.3-0.5,0.5-0.8c0.1-0.1,0.1-0.2,0.2-0.3
		c0.2-0.3,0.3-0.6,0.5-1c0.1-0.1,0.1-0.2,0.1-0.3c0.1-0.3,0.2-0.5,0.2-0.7c0.1-0.2,0.1-0.3,0.2-0.5c0.1-0.2,0.1-0.4,0.2-0.6
		c0.1-0.3,0.1-0.6,0.2-0.9c0-0.1,0.1-0.2,0.1-0.3c0.1-0.8,0.1-1.6,0.1-2.3v-0.1c-0.2-3.3-1.6-6.4-3.9-8.8
		c-14-14-32.5-21.6-52.2-21.6c-6.2,0-12.4,0.8-18.3,2.3L288.7,43c0.4-0.6,0.7-1.3,1-2.1c0.2-0.6,0.4-1.2,0.5-1.6
		c0.2-0.9,0.3-1.7,0.3-2.6c0.1-1.3-0.1-2.6-0.4-3.9c-0.1-0.4-0.2-0.8-0.3-1.2c-0.3-0.8-0.6-1.6-1.1-2.4c-0.2-0.4-0.5-0.8-0.8-1.1
		c-0.5-0.7-1.1-1.4-1.8-2c-0.7-0.6-1.4-1.2-2.2-1.6c-0.3-0.2-0.6-0.3-1-0.5c-0.1-0.1-0.3-0.1-0.4-0.2c-0.2-0.1-0.3-0.1-0.4-0.2
		c-0.4-0.2-0.8-0.3-1.2-0.4c0,0,0,0-0.1,0c-1.2-0.3-2.6-0.6-3.8-0.6c-4.8,0-9.2,2.5-11.6,6.6l-40.6,68.1l-1.3-52
		c-0.1-3.6-1.6-7-4.2-9.5c-2.5-2.4-5.8-3.7-9.3-3.7c-0.1,0-0.2,0-0.3,0c-0.3,0-0.8,0.1-1.2,0.1c-0.1,0-0.3,0.1-0.5,0.1
		s-0.3,0.1-0.5,0.1c-0.4,0.1-0.9,0.2-1.2,0.3H206c-5.9,1.7-10,7.2-9.8,13.4l2,80c-0.7,0.3-1.3,0.5-2,0.8c0.1-0.5,0.2-0.9,0.2-1.4
		c0-2.7-1.8-5-4.3-5.8v-0.5c0-1.6-1.2-3-2.7-3.4c-0.6-1.2-1.7-1.9-3.1-1.9h-37.8c-1.3,0-2.6,0.8-3.1,1.9c-1.6,0.3-2.7,1.7-2.7,3.4
		v10.9h-0.6v-0.2c0-1.9-1.6-3.5-3.5-3.5h-2.3v-0.2c0-1.9-1.6-3.5-3.5-3.5H0v100.1h132.8c1.9,0,3.5-1.6,3.5-3.5v-1.6h2.3
		c1.9,0,3.5-1.6,3.5-3.5v-12.5h11.1c0.2,0.3,0.3,0.5,0.6,0.8c0.6,0.6,1.6,1,2.5,1h22.2c1.3,0,2.4-0.7,3-1.8h2.4
		c19.1,0,33.5,10.1,39,14.6c0.5,0.5,1,1,1.5,1.5c1.4,1.4,2.9,2.8,4.4,4.1c13.3,11.3,30.3,17.5,47.8,17.5c19.7,0,38.3-7.7,52.2-21.6
		c0.3-0.3,0.5-0.6,0.8-0.9c0.1-0.1,0.1-0.2,0.2-0.2c0.2-0.3,0.5-0.6,0.7-0.9c0.1-0.1,0.1-0.1,0.1-0.2c0.2-0.3,0.3-0.5,0.5-0.8
		c0.1-0.1,0.1-0.2,0.2-0.3c0.2-0.3,0.3-0.6,0.5-1c0.1-0.1,0.1-0.2,0.1-0.3c0.1-0.3,0.2-0.5,0.2-0.7c0.1-0.2,0.1-0.3,0.2-0.5
		c0.1-0.2,0.1-0.4,0.2-0.6c0.1-0.3,0.1-0.6,0.2-0.9c0-0.1,0.1-0.2,0.1-0.3c0.1-0.8,0.1-1.6,0.1-2.3L332.7,207.4z"/>
	<path opacity="0.15" fill="#181917" enable-background="new    " d="M393,166c0-13.2-10.8-24-24-24h-99.2c-13.2,0-24,10.8-24,24
		s10.8,24,24,24H369C382.2,190,393,179.2,393,166z"/>
	<path fill="#F67C2A" d="M393,154c0-13.2-10.8-24-24-24h-99.2c-13.2,0-24,10.8-24,24s10.8,24,24,24H369C382.2,178,393,167.2,393,154
		z"/>
	<g>
		<path fill="#4D5056" d="M332.7,195.8c-0.2-3.3-1.6-6.4-3.9-8.8c-2.5-2.5-5.9-3.9-9.5-3.9c-3.6,0-6.9,1.4-9.5,3.9
			c-8.9,8.9-20.7,13.8-33.3,13.8s-24.4-4.9-33.3-13.8c-8.9-8.9-13.8-20.7-13.8-33.3c0-0.6,0-1.4,0.1-2.2c0-0.6,0.1-1.2,0.1-1.7v-0.3
			c0-0.1,0-0.2,0-0.2c0.1-0.5,0.1-1,0.2-1.5l0.1-0.3c0-0.1,0.1-0.3,0.1-0.4c0.1-0.5,0.1-0.9,0.2-1.3l0.1-0.3
			c0.1-0.2,0.1-0.4,0.1-0.6c0.1-0.5,0.2-0.9,0.3-1.3l0.1-0.2c0.1-0.2,0.1-0.4,0.2-0.6c0.1-0.4,0.2-0.9,0.3-1.3v-0.1
			c0.1-0.3,0.2-0.5,0.2-0.8c0.1-0.4,0.2-0.8,0.3-1.2c0.1-0.3,0.2-0.6,0.3-0.9c0.1-0.4,0.3-0.8,0.4-1.2c0.1-0.3,0.2-0.6,0.3-0.9
			c0.2-0.3,0.3-0.8,0.5-1.1c0.1-0.3,0.3-0.6,0.4-0.9c0.2-0.3,0.3-0.7,0.5-1c0.2-0.3,0.3-0.6,0.5-1c0.2-0.3,0.3-0.7,0.5-1
			c0.2-0.3,0.3-0.6,0.6-1l0.1-0.1c0.2-0.3,0.3-0.6,0.5-0.9c0.2-0.3,0.4-0.6,0.6-0.9l0.1-0.2c0.2-0.2,0.3-0.5,0.5-0.7
			c0.2-0.3,0.4-0.6,0.6-0.8l0.3-0.4c0.1-0.2,0.3-0.4,0.4-0.6c0.2-0.3,0.5-0.6,0.7-0.9l0.3-0.5c0.1-0.2,0.2-0.3,0.3-0.5
			c0.3-0.3,0.6-0.7,0.9-1l0.3-0.3c0.1-0.1,0.2-0.2,0.3-0.3c0.5-0.6,1-1.1,1.6-1.6c8.9-8.9,20.7-13.8,33.3-13.8s24.4,4.9,33.3,13.8
			c2.5,2.5,5.9,3.9,9.5,3.9s6.9-1.4,9.5-3.9c0.3-0.3,0.5-0.6,0.8-0.9c0.1-0.1,0.1-0.2,0.2-0.2c0.2-0.3,0.5-0.6,0.7-0.9
			c0.1-0.1,0.1-0.1,0.1-0.2c0.2-0.3,0.3-0.5,0.5-0.8c0.1-0.1,0.1-0.2,0.2-0.3c0.2-0.3,0.3-0.6,0.5-1c0.1-0.1,0.1-0.2,0.1-0.3
			c0.1-0.3,0.2-0.5,0.2-0.7c0.1-0.2,0.1-0.3,0.2-0.5s0.1-0.4,0.2-0.6c0.1-0.3,0.1-0.6,0.2-0.9c0-0.1,0.1-0.2,0.1-0.3
			c0.1-0.8,0.1-1.6,0.1-2.3v-0.1c-0.2-3.3-1.6-6.4-3.9-8.8c-14-14-32.5-21.6-52.2-21.6c-6.2,0-12.4,0.8-18.3,2.3l30.3-50.8
			c0.4-0.6,0.7-1.3,1-2.1c0.2-0.6,0.4-1.2,0.5-1.6c0.2-0.9,0.3-1.7,0.3-2.6c0.1-1.3-0.1-2.6-0.4-3.9c-0.1-0.4-0.2-0.8-0.3-1.2
			c-0.3-0.8-0.6-1.6-1.1-2.4c-0.2-0.4-0.5-0.8-0.8-1.1c-0.5-0.7-1.1-1.4-1.8-2c-0.7-0.6-1.4-1.2-2.2-1.6c-0.3-0.2-0.6-0.3-1-0.5
			c-0.1-0.1-0.3-0.1-0.4-0.2c-0.2-0.1-0.3-0.1-0.4-0.2c-0.4-0.2-0.8-0.3-1.2-0.4c0,0,0,0-0.1,0c-1.2-0.3-2.6-0.6-3.8-0.6
			c-4.8,0-9.2,2.5-11.6,6.6l-40.6,68.1l-1.3-52c-0.1-3.6-1.6-7-4.2-9.5c-2.5-2.4-5.8-3.7-9.3-3.7c-0.1,0-0.2,0-0.3,0
			c-0.3,0-0.8,0.1-1.2,0.1c-0.1,0-0.3,0.1-0.5,0.1s-0.3,0.1-0.5,0.1c-0.4,0.1-0.9,0.2-1.2,0.3H206c-5.9,1.7-10,7.2-9.8,13.4l2,80
			c-0.7,0.3-1.3,0.5-2,0.8c0.1-0.5,0.2-0.9,0.2-1.4c0-2.7-1.8-5-4.3-5.8v-0.5c0-1.6-1.2-3-2.7-3.4c-0.6-1.2-1.7-1.9-3.1-1.9h-37.8
			c-1.3,0-2.6,0.8-3.1,1.9c-1.6,0.3-2.7,1.7-2.7,3.4v10.9h-0.6V118c0-1.9-1.6-3.5-3.5-3.5h-2.3v-0.2c0-1.9-1.6-3.5-3.5-3.5H0v100.1
			h132.8c1.9,0,3.5-1.6,3.5-3.5v-1.6h2.3c1.9,0,3.5-1.6,3.5-3.5v-12.5h11.1c0.2,0.3,0.3,0.5,0.6,0.8c0.6,0.6,1.6,1,2.5,1h22.2
			c1.3,0,2.4-0.7,3-1.8h2.4c19.1,0,33.5,10.1,39,14.6c0.5,0.5,1,1,1.5,1.5c1.4,1.4,2.9,2.8,4.4,4.1c13.3,11.3,30.3,17.5,47.8,17.5
			c19.7,0,38.3-7.7,52.2-21.6c0.3-0.3,0.5-0.6,0.8-0.9c0.1-0.1,0.1-0.2,0.2-0.2c0.2-0.3,0.5-0.6,0.7-0.9c0.1-0.1,0.1-0.1,0.1-0.2
			c0.2-0.3,0.3-0.5,0.5-0.8c0.1-0.1,0.1-0.2,0.2-0.3c0.2-0.3,0.3-0.6,0.5-1c0.1-0.1,0.1-0.2,0.1-0.3c0.1-0.3,0.2-0.5,0.2-0.7
			c0.1-0.2,0.1-0.3,0.2-0.5c0.1-0.2,0.1-0.4,0.2-0.6c0.1-0.3,0.1-0.6,0.2-0.9c0-0.1,0.1-0.2,0.1-0.3c0.1-0.8,0.1-1.6,0.1-2.3
			L332.7,195.8z"/>
		<g>
			<path fill="#F9D6BB" d="M209.5,23.7L209.5,23.7c-5.6,0.1-10,4.8-9.8,10.3l2.6,100.2c0.1,5.6,4.8,10,10.3,9.8l0,0
				c5.6-0.1,10-4.8,9.8-10.3l-2.6-100.3C219.7,28,215.1,23.6,209.5,23.7z"/>
		</g>
		<path opacity="0.3" fill="#EAB88B" enable-background="new    " d="M217.4,133.9l-2.6-100.2c-0.1-4.7-3.4-8.6-7.9-9.6
			c0.8-0.2,1.6-0.3,2.4-0.4l0,0c5.6-0.1,10.2,4.3,10.3,9.8l2.6,100.2c0.1,5.6-4.3,10.2-9.8,10.3l0,0c-0.9,0-1.7-0.1-2.5-0.2
			C214.4,142.6,217.6,138.6,217.4,133.9z"/>
		<g>
			<path fill="#F9D6BB" d="M282.1,15.7L282.1,15.7c-4.8-2.9-10.9-1.3-13.8,3.5l-51.4,86.1c-2.9,4.8-1.3,10.9,3.5,13.8l0,0
				c4.8,2.9,10.9,1.3,13.8-3.5l51.4-86.1C288.4,24.7,286.9,18.6,282.1,15.7z"/>
		</g>
		<path opacity="0.3" fill="#EAB88B" enable-background="new    " d="M230,113.1L281.3,27c2.4-4,1.6-9.1-1.5-12.3
			c0.8,0.2,1.6,0.6,2.3,1l0,0c4.8,2.9,6.3,9,3.5,13.8l-51.4,86.1c-2.9,4.8-9,6.3-13.8,3.5l0,0c-0.8-0.5-1.4-0.9-2-1.5
			C222.7,118.8,227.6,117.1,230,113.1z"/>
		<path fill="#F9D6BB" d="M178.9,121.7c27.6,0,48.2-22.7,57.7-36.1l-10.7,40.6v43.4l5.1,37.7c-8-9-25.8-21-47.2-21h-55.7v-64.6
			L178.9,121.7L178.9,121.7z"/>
		<g opacity="0.3">
			<path fill="#EAB88B" d="M229,192.4l2,15c-8-9-25.8-21-47.2-21h-55.7v-12.8h55.8C203.6,173.5,220.2,183.8,229,192.4z"/>
		</g>
		<path fill="#F9D6BB" d="M276.6,224.1c18.8,0,36.5-7.3,49.7-20.6c3.8-3.8,3.8-10.1,0-14c-3.8-3.8-10.1-3.8-14,0
			c-9.6,9.6-22.2,14.8-35.8,14.8s-26.2-5.2-35.8-14.8c-9.6-9.6-14.8-22.2-14.8-35.8c0-13.5,5.2-26.2,14.8-35.8
			c9.6-9.6,22.2-14.8,35.8-14.8c13.5,0,26.2,5.2,35.8,14.8c3.8,3.8,10.1,3.8,14,0c3.8-3.8,3.8-10.1,0-14
			c-13.3-13.3-31-20.6-49.7-20.6c-18.8,0-36.5,7.3-49.7,20.6s-20.6,31-20.6,49.7s7.3,36.5,20.6,49.7
			C240.2,216.7,257.8,224.1,276.6,224.1z"/>
		<g opacity="0.3">
			<path fill="#EAB88B" d="M312.4,118c-9.6-9.6-22.2-14.8-35.8-14.8c-13.5,0-26.2,5.2-35.8,14.8c-9,9-14.2,20.8-14.7,33.4
				c-0.1-0.8-0.1-1.6-0.1-2.3c0-13.5,5.2-26.2,14.8-35.8c9.6-9.6,22.2-14.8,35.8-14.8c13.5,0,26.2,5.2,35.8,14.8
				c3.8,3.8,10.1,3.8,14,0c1.3-1.3,2.2-3,2.6-4.7c0.8,3.3-0.1,6.8-2.6,9.3C322.5,121.8,316.2,121.8,312.4,118z"/>
			<path fill="#EAB88B" d="M226.9,198.8c13.3,13.3,31,20.6,49.7,20.6c18.8,0,36.5-7.3,49.7-20.6c1.3-1.3,2.2-3,2.6-4.7
				c0.8,3.3-0.1,6.8-2.6,9.3c-13.3,13.3-31,20.6-49.7,20.6c-18.8,0-36.5-7.3-49.7-20.6c-13.3-13.3-20.6-31-20.6-49.7
				c0-0.8,0-1.6,0.1-2.3C206.8,169.3,214.1,186,226.9,198.8z"/>
		</g>
		<rect x="156.3" y="119.3" fill="#F67C2A" width="22.1" height="68.8"/>
		<rect x="151.6" y="121.7" opacity="0.3" fill="#EAB88B" enable-background="new    " width="4.7" height="64.6"/>
		<rect x="138.6" y="121.7" opacity="0.3" fill="#EAB88B" enable-background="new    " width="4.7" height="64.6"/>
		<rect x="0" y="114.2" fill="#EFEBEA" width="132.8" height="93.1"/>
		<rect x="0" y="176.5" opacity="0.3" fill="#89C2E5" enable-background="new    " width="132.8" height="30.9"/>
		<path fill="#9B4A42" d="M187.2,116.1h3.1c1.5,0,2.6-1.2,2.6-2.6l0,0c0-1.5-1.2-2.6-2.6-2.6h-3.1V116.1z"/>
		<rect x="146.1" y="107.2" fill="#F67C2A" width="42.5" height="12.6"/>
		<polygon opacity="0.3" fill="#33353A" enable-background="new    " points="156.2,127.6 178.4,127.6 178.4,119.9 156.3,119.9 		
			"/>
		<polygon opacity="0.3" fill="#33353A" enable-background="new    " points="156.2,188.1 178.4,188.1 178.4,176.2 156.3,176.2 		
			"/>
		<rect x="132.8" y="118" fill="#D0D3D6" width="5.8" height="84.3"/>
		<rect x="148.4" y="105.4" fill="#DBCFCC" width="37.8" height="1.8"/>
	</g>
	<path fill="#EFEBEA" d="M319.2,130h-49.5c-13.2,0-24,10.8-24,24s10.8,24,24,24h49.5V130z"/>
	<path opacity="0.3" fill="#33353A" enable-background="new    " d="M269.8,175H369c6.6,0,12.6-2.7,16.9-7h-133
		C257.2,172.3,263.2,175,269.8,175z"/>
	<path opacity="0.3" fill="#FFFFFF" enable-background="new    " d="M385.6,140c-4.3-4-10.1-7-16.6-7h-99.2c-6.4,0-12.2,3-16.6,7
		H385.6z"/>
</g>
</svg>
