<?xml version="1.0" encoding="utf-8"?>
<!-- Generator: Adobe Illustrator 18.0.0, SVG Export Plug-In . SVG Version: 6.00 Build 0)  -->
<!DOCTYPE svg PUBLIC "-//W3C//DTD SVG 1.1//EN" "http://www.w3.org/Graphics/SVG/1.1/DTD/svg11.dtd">
<svg version="1.1" id="Layer_1" xmlns="http://www.w3.org/2000/svg" xmlns:xlink="http://www.w3.org/1999/xlink" x="0px" y="0px"
	 viewBox="0 0 100 40" enable-background="new 0 0 100 40" xml:space="preserve">
<g>
	<g>
		<path fill="#FFFFFF" d="M86.5,28.2c-0.4,0-0.7,0.2-1.2,0.6c-0.7,0.5-1.6,1.1-2.6,1.1c1.2-1.6,3.1-4.9,3.1-8.5c0-0.5,0-0.9-0.1-1.4
			c0-1.7-1.4-5.1-4.7-5.1c-1.4,0-2.3,0.4-3.1,1c-0.6-0.9-0.9-1.1-1.4-1.1l-0.1,0c-1,0.3-4.7,3.1-6.4,7.8c0-0.4,0.1-0.8,0.1-1.2
			c0-0.5,0-0.9-0.1-1.4c0-1.7-1.4-5.1-4.7-5.1c-1.4,0-2.3,0.4-3.1,1c-0.6-0.9-0.9-1.1-1.4-1.1l-0.1,0c-1.3,0.4-7.3,5-7.3,12.8
			c0,0.4,0,0.8,0.1,1.2c-1.3,2-2.6,2.9-3.4,2.9c-0.2,0-0.6,0-0.6-1.7c0-2.3,1.2-4.5,2.4-6.5c0.7-1.2,1.3-2.3,1.7-3.4
			c0.2-0.5,0.2-1.3,0.2-1.6c0-1.9-3.2-4.5-3.8-4.5h-0.7l0.3,1.1c0.2,0.3-0.5,1.5-1.7,3.1c-1.7,2.3-4.3,6.2-8.2,13
			c1-4.3,4.3-12.2,9.4-22.6l0.1-0.2c0.3-0.8,0.4-1.4,0.4-2c0-2.1-2.7-3.2-3.9-3.7c-0.2-0.1-0.7-0.1-0.7-0.1L44,1.9V3
			c0,0.5,0,1.4-0.2,2.2c-0.2,0.4-0.2,0.9-0.3,1.4l0,0.2c-0.1,0.2-0.2,0.7-0.4,1.2c-1.5,3.7-5.2,13.2-6.9,20.4
			c-0.3,0.2-0.6,0.5-0.9,0.8c-1,0.9-3.7,3.1-6.3,3.1c-2.4,0-4.1-2-4.1-4.7c0-4.2,4.1-8.6,5.8-8.6c0.2,0,0.4,0,0.4,0.7
			c0,0.4-0.1,0.9-0.2,1.3c-0.2,0.8-0.6,2.1-1.7,3.4L28.9,25l0.6,0.2c0.2,0.1,0.4,0.1,0.6,0.2c0.2,0.1,0.4,0.1,0.6,0.2
			c0.6,0.2,1.5,0.5,2.4,0.5c2.7,0,3.7-3.7,3.7-6.1c0-1.3-0.9-6.4-5.2-6.4c-0.5,0-1,0.1-1.4,0.2c-5.7,1.9-8.9,6.9-8.9,13.7
			c0,0.4,0,0.9,0.1,1.3c-1.5,3.2-3.1,4.7-3.9,4.7c-0.3,0-0.6-0.8-0.6-1.9c0-3.1,1.9-6.5,3.5-9.3l0.2-0.3h0.1l0.3-0.7
			c0.3-0.7,0.6-1.9,0.6-2.7c0-1.9-3.4-4.6-4-4.6h-0.3L17,14.8c0,0.1,0,0.4-0.1,0.5c0,0,0,0.2,0,0.2c-1-0.6-2.1-1.2-4-1.2
			c-6.2,0-11,6.9-11,12.9c0,2.8,1.2,7.6,5.8,7.6c2.7,0,4.1-1.2,5-2.2c0.8,2.6,2.6,3.6,4.1,3.6c2.3,0,4.1-2.2,5.3-4.6
			c1.1,2.1,3.2,3.7,5.9,3.7c2.4,0,5.2-1.3,7.5-3.2c-0.1,0.8-0.2,1.5-0.2,2.2c0,3.5,2.2,3.8,2.8,3.8c1.3,0,2.5-0.9,2.9-2.2
			c0.4-1.4,1.8-4.4,4-8.6c0,0.5-0.1,0.9-0.1,1.5c0,3.5,1.9,6.2,4.4,6.2c1.9,0,3.6-1.5,4.8-3.3c0.9,1.8,2.5,3.3,5.1,3.3
			c2.3,0,4.2-1.6,5-2.4c0.5,0.2,1.1,0.3,1.7,0.3c1.8,0,3-0.5,3.9-1.2c0.9,1.8,2.5,3.3,5.1,3.3c2.3,0,4.2-1.6,5-2.4
			c0.5,0.2,1.1,0.3,1.7,0.3c4.1,0,5.4-2.7,5.4-3.7C87.1,28.5,86.8,28.2,86.5,28.2z M81.3,23.2c0,0.5,0,1.2-0.3,1.9
			c-0.3,1.5-0.8,2.6-1.4,3.6c-0.6-0.5-0.9-1.8-0.9-3c0-2.1,1.3-5,2.3-5.2C81.3,20.9,81.3,22.4,81.3,23.2z M77.4,31.1
			c-1.2,0.9-1.9,1-2,1c-1.9-0.2-2.6-1.2-2.6-3.5c0-2.1,0.9-3.9,1.9-5.2c0,0.1,0,0.3,0,0.4C74.6,27.3,75.5,29.7,77.4,31.1z
			 M65.6,23.2c0,0.5,0,1.2-0.3,1.9c-0.3,1.5-0.8,2.6-1.4,3.6c-0.6-0.5-0.9-1.8-0.9-3c0-2.1,1.3-5,2.3-5.2
			C65.6,20.9,65.6,22.4,65.6,23.2z M61.7,31.1c-1.2,0.9-1.9,1-2,1c-1.9-0.2-2.6-1.2-2.6-3.5c0-2.1,0.9-3.9,1.9-5.2
			c0,0.1,0,0.3,0,0.4C58.9,27.3,59.9,29.7,61.7,31.1z M38.9,33.6C38.9,33.6,38.9,33.6,38.9,33.6C38.9,33.6,38.9,33.6,38.9,33.6
			L38.9,33.6z M12.2,19.6c0.8,0,1.6,0.4,2.4,1.3c-1.1,2.5-2.3,6.1-2.3,9.3c-0.8,1-2.1,2.1-3.8,2.1c-2.2,0-3.2-1.4-3.2-4.3
			C5.4,24,9.4,19.6,12.2,19.6z M69.2,29.1c-0.6,0.4-1.4,0.8-2.2,0.8c0.7-0.9,1.6-2.4,2.2-4.2c-0.1,0.6-0.1,1.3-0.1,1.9
			C69.1,28.1,69.1,28.6,69.2,29.1z"/>
		<path fill="#FFFFFF" d="M97.2,8.2c-0.9-1.2-2.4-1.7-3-1.5L94,6.8v0.4c0,2.4-0.3,3-0.5,3.6c-0.4,2.2-1.7,6.8-2.8,10.8
			c-1.4,5.2-2.2,8.4-2.2,9.1c0,0.2,0,0.3,0.2,0.4c0.1,0.1,0.1,0.2,0.2,0.2l0.1,0v-0.5c0,0,0,0,0,0l0.1,0l0.4,0.2
			c0-0.1,0.1-0.2,0.2-0.4c2.3-4.5,4.8-10.4,7.4-17.7l0.5-1.7C98,10.1,97.8,9,97.2,8.2z"/>
		<circle fill="#FFFFFF" cx="88.1" cy="34.4" r="2"/>
	</g>
	<g>
		<path fill="#4D5056" d="M43.7,1.9L45,2.7c0,0,0,0,0,0l0,0c0,0,0,0,0,0c0,0,0.7,0,0.9,0.1c1.2,0.5,3.9,1.6,3.9,3.7
			c0,0.6-0.1,1.2-0.4,2l-0.1,0.2C44.2,19,40.9,27,39.9,31.2c3.9-6.8,6.6-10.7,8.2-13c1.1-1.6,1.8-2.7,1.7-3.1l-0.3-1.1h0.7
			c0.5,0,3.8,2.7,3.8,4.5c0,0.3-0.1,1.1-0.2,1.6c-0.4,1.1-1,2.2-1.7,3.4c-1.2,2.1-2.4,4.2-2.4,6.5c0,1.7,0.4,1.7,0.6,1.7
			c0.8,0,2.1-0.9,3.4-2.9c-0.1-0.4-0.1-0.8-0.1-1.2c0-7.8,6-12.4,7.3-12.8l0.1,0c0.4,0,0.8,0.3,1.4,1.1c0.8-0.5,1.7-1,3.1-1
			c3.2,0,4.7,3.4,4.7,5.1c0.1,0.5,0.1,0.9,0.1,1.4c0,0.4,0,0.8-0.1,1.2c1.7-4.7,5.5-7.5,6.4-7.8l0.1,0c0.4,0,0.8,0.3,1.4,1.1
			c0.8-0.5,1.7-1,3.1-1c3.2,0,4.7,3.4,4.7,5.1c0.1,0.5,0.1,0.9,0.1,1.4c0,3.6-1.9,6.8-3.1,8.5c0,0,0.1,0,0.1,0c1,0,1.9-0.6,2.5-1.1
			c0.5-0.3,0.9-0.6,1.2-0.6c0.3,0,0.7,0.3,0.7,0.8c0,1-1.3,3.7-5.4,3.7c-0.6,0-1.2-0.1-1.7-0.3c-0.8,0.8-2.7,2.4-5,2.4
			c-2.6,0-4.2-1.5-5.1-3.3c-0.8,0.7-2.1,1.2-3.9,1.2c-0.6,0-1.2-0.1-1.7-0.3c-0.8,0.8-2.7,2.4-5,2.4c-2.6,0-4.2-1.5-5.1-3.3
			c-1.2,1.8-2.9,3.3-4.8,3.3c-2.5,0-4.4-2.7-4.4-6.2c0-0.5,0-1,0.1-1.5c-2.3,4.2-3.7,7.3-4,8.6c-0.4,1.3-1.6,2.2-2.9,2.2
			c-0.7,0-2.8-0.3-2.8-3.8c0-0.6,0.1-1.4,0.2-2.2c-2.3,1.9-5.2,3.2-7.5,3.2c-2.7,0-4.7-1.6-5.9-3.7c-1.2,2.4-3,4.6-5.3,4.6
			c-1.5,0-3.2-1-4.1-3.6c-0.9,1-2.3,2.2-5,2.2c-4.6,0-5.8-4.8-5.8-7.6c0-5.9,4.8-12.9,11-12.9c1.9,0,3,0.6,4,1.2c0,0,0-0.2,0-0.2
			c0-0.1,0-0.4,0.1-0.5l0.1-0.8h0.3c0.6,0,4,2.6,4,4.5c0,0.8-0.3,1.9-0.6,2.6l-0.3,0.6h-0.1l-0.2,0.4c-1.6,2.8-3.5,6.3-3.5,9.4
			c0,1.2,0.2,1.9,0.6,1.9c0.8,0,2.4-1.5,3.9-4.7c-0.1-0.4-0.1-0.8-0.1-1.3c0-6.8,3.3-11.8,8.9-13.7c0.5-0.2,1-0.2,1.4-0.2
			c4.3,0,5.2,5,5.2,6.4c0,2.4-1,6.1-3.7,6.1c-0.9,0-1.8-0.3-2.4-0.5c-0.2-0.1-0.4-0.2-0.6-0.2c-0.2-0.1-0.4-0.1-0.6-0.2L29,25
			l0.4-0.5c1.1-1.4,1.5-2.6,1.7-3.4c0.1-0.5,0.2-0.9,0.2-1.3c0-0.7-0.2-0.7-0.4-0.7c-1.8,0-5.9,4.4-5.9,8.6c0,2.7,1.7,4.7,4.1,4.7
			c2.6,0,5.2-2.1,6.3-3.1c0.4-0.3,0.6-0.5,0.9-0.8c1.7-7.2,5.4-16.7,6.8-20.4c0.2-0.6,0.3-1,0.4-1.2l-0.1-0.2c0.1-0.4,0-0.9,0.2-1.4
			c0.3-0.8,0-1.7,0-2.2V1.9 M8.7,32.3c1.7,0,3-1.1,3.8-2.1c0-3.2,1.2-6.8,2.3-9.3c-0.9-0.9-1.6-1.3-2.4-1.3c-2.8,0-6.9,4.4-6.9,8.5
			C5.5,31,6.5,32.3,8.7,32.3 M79.7,28.7c0.7-1,1.1-2.2,1.4-3.6c0.2-0.6,0.3-1.4,0.3-1.9c0-0.8,0-2.3-0.2-2.6c-1,0.2-2.3,3.1-2.3,5.2
			C78.8,26.9,79.1,28.2,79.7,28.7 M64.1,28.7c0.7-1,1.1-2.2,1.4-3.6c0.2-0.6,0.3-1.4,0.3-1.9c0-0.8,0-2.3-0.2-2.6
			c-1,0.2-2.3,3.1-2.3,5.2C63.2,26.9,63.5,28.2,64.1,28.7 M75.5,32.2c0.2,0,0.8-0.1,2-1c-1.9-1.4-2.8-3.8-2.8-7.2c0-0.1,0-0.3,0-0.4
			c-1,1.3-1.9,3.1-1.9,5.2C72.8,30.9,73.6,32,75.5,32.2 M59.8,32.2c0.2,0,0.8-0.1,2-1C60,29.8,59,27.3,59,23.9c0-0.1,0-0.3,0-0.4
			c-1,1.3-1.9,3.1-1.9,5.2C57.2,30.9,58,32,59.8,32.2 M67.2,29.9c0.8,0,1.5-0.4,2.1-0.8c-0.1-0.5-0.1-1-0.1-1.4
			c0-0.7,0.1-1.3,0.1-1.9C68.7,27.5,67.8,29,67.2,29.9C67.1,29.9,67.2,29.9,67.2,29.9 M39.1,33.6C39.1,33.6,39.1,33.6,39.1,33.6
			C39.1,33.6,39.1,33.6,39.1,33.6C39.1,33.6,39.1,33.6,39.1,33.6L39.1,33.6C39.1,33.6,39.1,33.6,39.1,33.6 M43.7,0
			c-0.3,0-0.7,0.1-1,0.3c-0.6,0.3-1,1-1,1.7V3c0,0.3,0,0.5,0.1,0.8c0,0.2,0.1,0.6,0,0.8c-0.2,0.5-0.2,1-0.2,1.4c0,0.1,0,0.1,0,0.2
			c0,0.2-0.1,0.4-0.1,0.6c-0.1,0.2-0.1,0.4-0.2,0.6c-0.7,1.7-2,5.1-3.4,9c-1-2.4-2.9-4.7-6.4-4.7c-0.7,0-1.4,0.1-2.1,0.3
			c-2.7,0.9-4.9,2.4-6.6,4.5c-0.4-0.8-1-1.5-1.8-2.3c-1-1-2.4-2.1-3.5-2.1h-0.3c-0.6,0-1.1,0.3-1.5,0.7c-0.8-0.2-1.6-0.4-2.7-0.4
			c-3.5,0-6.8,1.7-9.3,4.9c-2.3,2.8-3.6,6.5-3.6,9.9c0,4.6,2.4,9.6,7.7,9.6c1.9,0,3.3-0.5,4.4-1.1c1.3,1.8,3.1,2.5,4.7,2.5
			c1.5,0,3.5-0.6,5.5-3.2c1.5,1.5,3.5,2.2,5.7,2.2c1.7,0,3.7-0.5,5.6-1.5c0.3,1.7,1.1,2.7,1.8,3.3c1.1,0.9,2.3,1,2.9,1
			c2.2,0,4.1-1.4,4.7-3.6c0,0,0-0.1,0-0.1c0.1-0.3,0.4-1.2,1.3-3.1c1.1,2.1,3.1,3.5,5.3,3.5c1.9,0,3.4-0.9,4.7-2.1
			c1.4,1.4,3.2,2.1,5.2,2.1c2.2,0,4.2-1,5.6-2.2c0.3,0.1,0.7,0.1,1.1,0.1c1.2,0,2.3-0.2,3.2-0.6c1.4,1.7,3.4,2.7,5.7,2.7
			c2.2,0,4.2-1,5.6-2.2c0.3,0.1,0.7,0.1,1.1,0.1c2.9,0,4.6-1.1,5.6-2c1.3-1.2,1.7-2.7,1.7-3.6c0-1.5-1-2.6-2.4-2.7
			c0.5-1.5,0.9-3.1,0.9-4.9c0-0.5,0-1-0.1-1.5c-0.1-2.9-2.4-6.9-6.6-6.9c-1.1,0-1.9,0.2-2.6,0.5c-0.5-0.4-1-0.6-1.8-0.6
			c-0.1,0-0.2,0-0.3,0l-0.1,0c-0.1,0-0.2,0-0.3,0.1c-1,0.3-3,1.7-4.7,3.8c-1-2-3-3.8-5.8-3.8c-1.1,0-1.9,0.2-2.6,0.5
			c-0.5-0.4-1-0.6-1.8-0.6c-0.1,0-0.2,0-0.3,0l-0.1,0c-0.1,0-0.2,0-0.3,0.1c-1.1,0.3-3.1,1.8-4.8,3.9c-0.4-0.9-1-1.8-1.9-2.7
			c-1.4-1.4-2.6-2.1-3.5-2.1h-0.4c0.4-0.9,0.8-1.7,1.3-2.6L51,9.4c0.1-0.1,0.1-0.2,0.1-0.3c0.3-1,0.5-1.8,0.5-2.6
			c0-3.3-3.6-4.9-5-5.4c-0.3-0.1-0.7-0.2-1-0.2l-0.9-0.6C44.3,0.1,44,0,43.7,0L43.7,0z M8.7,30.4c-0.6,0-1.3,0-1.3-2.3
			c0-3.3,3.4-6.5,4.9-6.5c0,0,0.1,0,0.1,0c-0.9,2.3-1.7,5.1-1.9,7.9C10.1,30,9.4,30.4,8.7,30.4L8.7,30.4z M29.1,30.4
			c-1.5,0-2.2-1.4-2.2-2.8c0-0.6,0.1-1.2,0.3-1.8c0.2,0.4,0.6,0.8,1,1l0.6,0.2c0.2,0.1,0.4,0.2,0.6,0.2c0.2,0.1,0.4,0.1,0.5,0.2
			c0,0,0.1,0,0.1,0c0.7,0.2,1.8,0.6,3,0.6c0.3,0,0.6,0,0.8-0.1C32.6,29.2,30.6,30.4,29.1,30.4L29.1,30.4z"/>
		<path fill="#4D5056" d="M94.5,6.6c0.7,0,1.9,0.5,2.7,1.5c0.6,0.8,0.8,1.9,0.4,3l-0.5,1.7c-2.5,7.2-5,13.2-7.4,17.7
			c-0.1,0.2-0.3,0.4-0.3,0.4l-0.6-0.2l-0.3,0c0,0,0-0.1,0-0.2c0-0.7,0.9-3.9,2.3-9.1c1.1-4.1,2.3-8.6,2.7-10.8
			c0.2-0.6,0.5-1.2,0.5-3.6V6.8l0.2-0.1C94.3,6.7,94.4,6.6,94.5,6.6 M88.5,30.8c0,0.1,0.1,0.2,0.1,0.3c0.1,0.1-0.2,0.2-0.1,0.2
			l-0.1,0L88.5,30.8C88.4,30.8,88.4,30.8,88.5,30.8L88.5,30.8 M94.5,4.7c-0.2,0-0.5,0-0.7,0.1c-0.4,0.1-0.7,0.3-0.9,0.5l-0.2,0.1
			C92.3,5.8,92,6.2,92,6.8v0.4c0,1.6-0.1,2.1-0.2,2.6c-0.1,0.2-0.1,0.3-0.1,0.5c0,0,0,0.1,0,0.1c-0.3,1.4-0.9,3.9-1.7,6.6
			c-0.4,1.4-0.7,2.8-1.1,4.1c-0.3,1.1-0.6,2.2-0.8,3.1c-1,3.7-1.6,5.2-1.7,6.1c-0.1,0.2-0.4,0.4-0.4,0.6v0.5c0,0.5,0.5,1.1,0.9,1.4
			c0.4,0.3,0.9,0.5,1.4,0.5c0.1,0,0.2,0,0.3,0l0.2,0c0.3,0,0.6-0.1,0.9-0.3c0.5-0.1,1-0.3,1.4-0.8c0.1-0.1,0.3-0.4,0.5-0.7
			c2.5-4.8,5-10.8,7.5-17.9c0,0,0,0,0-0.1l0.5-1.7c0,0,0,0,0,0C100,10,99.7,8.3,98.7,7C97.7,5.6,96,4.7,94.5,4.7L94.5,4.7z"/>
		<path fill="#4D5056" d="M88.1,32.4c1.1,0,2,0.9,2,2c0,1.1-0.9,2-2,2s-2-0.9-2-2C86.1,33.3,87,32.4,88.1,32.4 M88.1,30.5
			c-2.2,0-3.9,1.8-3.9,3.9s1.8,3.9,3.9,3.9s3.9-1.8,3.9-3.9S90.2,30.5,88.1,30.5L88.1,30.5z"/>
	</g>
</g>
</svg>
