<?xml version="1.0" encoding="utf-8"?>
<!-- Generator: Adobe Illustrator 18.0.0, SVG Export Plug-In . SVG Version: 6.00 Build 0)  -->
<!DOCTYPE svg PUBLIC "-//W3C//DTD SVG 1.1//EN" "http://www.w3.org/Graphics/SVG/1.1/DTD/svg11.dtd">
<svg version="1.1" id="Layer_1" xmlns="http://www.w3.org/2000/svg" xmlns:xlink="http://www.w3.org/1999/xlink" x="0px" y="0px"
	 viewBox="0 0 420 250" enable-background="new 0 0 420 250" xml:space="preserve">
<g>
	<path opacity="0.15" fill="#181917" enable-background="new    " d="M420,115.5H270.7c-1.6,0-3,0.9-3.7,2.1h-8.1
		c-2.1,0-3.9,1.6-4.1,3.6h-3.4c-0.8-1.2-2.1-2-3.5-2h-26.2c-1.3,0-2.5,0.6-3.2,1.6c-1-8.3-5.2-15.9-12-21.2l-56.6-56.6
		c-3-3-6.8-4.5-11-4.5c-3,0-5.9,0.8-8.4,2.5c-0.4,0.3-0.8,0.6-1.2,0.9c-0.1,0-0.1,0.1-0.1,0.1c-0.4,0.3-0.8,0.7-1.2,1.1
		c0,0,0,0-0.1,0.1c-6.1,6.1-6.1,16,0,22.1l27.8,27.8H40.9c-6.4,0-12,4.3-13.5,10.5c-0.1,0.4-0.2,0.9-0.3,1.3c0,0.1-0.1,0.3-0.1,0.4
		c0,0.2-0.1,0.3-0.1,0.6c-0.1,0.4-0.1,0.8-0.1,1.2c0,2.8,0.8,5.5,2.4,7.8c2.6,3.9,7,6.1,11.6,6.1h69.4c-0.2,0.8-0.3,1.7-0.6,2.6H34
		c-6,0-11.3,3.9-13.2,9.4c-0.1,0.2-0.2,0.5-0.3,0.8c-0.2,0.7-0.3,1.4-0.4,2.3v0.3c0,0.3-0.1,0.7-0.1,1c0,0.1,0,0.2,0,0.2
		c0,7.8,6.3,14.1,14,14.1H107c0,0.5,0,0.9,0,1.4c0,0.4,0,0.8,0,1.2H40.9c-5.6,0-10.7,3.4-12.9,8.5c-0.3,0.4-0.5,0.8-0.6,1.4
		c-0.3,1.2-0.5,2.5-0.5,3.7c0,0.1,0,0.1,0,0.2c0,0.1,0,0.1,0,0.2c0,7.7,6.3,14,14,14h68.8c0.2,1,0.4,1.9,0.6,2.9H47.8
		c-5.9,0-11,3.7-13.1,9.1c-0.2,0.3-0.3,0.7-0.4,1c-0.3,1.2-0.5,2.5-0.5,3.7v0.1c0,7.7,6.3,14,14,14h159.9c4.5,0,8.5-2.8,10.1-6.7
		c0.6,1.6,2.1,2.8,3.9,2.8h26.2c1.9,0,3.4-1.2,4-3h2.9v8.1c0,2.3,1.9,4.1,4.1,4.1h7.6v2.6c0,2.3,1.9,4.1,4.1,4.1H420V115.5z"/>
	<path fill="#4D5056" d="M420,101.7H270.7c-1.6,0-3,0.9-3.7,2.1h-8.1c-2.1,0-3.9,1.6-4.1,3.6h-3.4c-0.8-1.2-2.1-2-3.5-2h-26.2
		c-1.3,0-2.5,0.6-3.2,1.6c-1-8.3-5.2-15.9-12-21.2l-56.6-56.5c-3-3-6.8-4.5-11-4.5c-3,0-5.9,0.8-8.4,2.5c-0.4,0.3-0.8,0.6-1.2,0.9
		c-0.1,0-0.1,0.1-0.1,0.1c-0.4,0.3-0.8,0.7-1.2,1.1c0,0,0,0-0.1,0.1c-6.1,6.1-6.1,16,0,22.1l27.8,27.8H40.9c-6.4,0-12,4.3-13.5,10.5
		c-0.1,0.4-0.2,0.9-0.3,1.3c0,0.1-0.1,0.3-0.1,0.4c0,0.2-0.1,0.3-0.1,0.6c-0.1,0.4-0.1,0.8-0.1,1.2c0,2.8,0.8,5.5,2.4,7.8
		c2.6,3.9,7,6.1,11.6,6.1h69.4c-0.2,0.8-0.3,1.7-0.6,2.6H34c-6,0-11.3,3.9-13.2,9.4c-0.1,0.2-0.2,0.5-0.3,0.8
		c-0.2,0.7-0.3,1.4-0.4,2.3v0.3c0,0.3-0.1,0.7-0.1,1c0,0.1,0,0.2,0,0.2c0,7.8,6.3,14.1,14,14.1H107c0,0.5,0,0.9,0,1.4
		c0,0.4,0,0.8,0,1.2H40.9c-5.6,0-10.7,3.4-12.9,8.5c-0.3,0.4-0.5,0.8-0.6,1.4c-0.3,1.2-0.5,2.5-0.5,3.7c0,0.1,0,0.1,0,0.2
		c0,0.1,0,0.1,0,0.2c0,7.7,6.3,14,14,14h68.8c0.2,1,0.4,1.9,0.6,2.9H47.8c-5.9,0-11,3.7-13.1,9.1c-0.2,0.3-0.3,0.7-0.4,1
		c-0.3,1.2-0.5,2.5-0.5,3.7v0.1c0,7.7,6.3,14,14,14h159.9c4.5,0,8.5-2.8,10.1-6.7c0.6,1.6,2.1,2.8,3.9,2.8h26.2c1.9,0,3.4-1.2,4-3
		h2.9v8.1c0,2.3,1.9,4.1,4.1,4.1h7.6v2.6c0,2.3,1.9,4.1,4.1,4.1H420V101.7z"/>
	<ellipse fill="#F9D6BB" cx="129.8" cy="139.2" rx="18.6" ry="55.8"/>
	<g>
		<path fill="#F9D6BB" d="M148.6,93.3L148.6,93.3c0-5.4-4.4-9.9-9.9-9.9H40.9c-5.4,0-9.9,4.4-9.9,9.9l0,0c0,5.4,4.4,9.9,9.9,9.9
			h97.9C144.3,103.1,148.6,98.6,148.6,93.3z"/>
	</g>
	<path opacity="0.3" fill="#EAB88B" enable-background="new    " d="M40.9,98.3h97.9c4.6,0,8.5-3.2,9.5-7.4c0.2,0.8,0.3,1.6,0.3,2.4
		l0,0c0,5.4-4.4,9.9-9.9,9.9H40.9c-5.4,0-9.9-4.4-9.9-9.9l0,0c0-0.8,0.1-1.7,0.3-2.4C32.4,95.1,36.3,98.3,40.9,98.3z"/>
	<g>
		<path fill="#F9D6BB" d="M148.6,123.8L148.6,123.8c0-5.4-4.4-9.9-9.9-9.9H34c-5.4,0-9.9,4.4-9.9,9.9l0,0c0,5.4,4.4,9.9,9.9,9.9
			h104.8C144.3,133.6,148.6,129.2,148.6,123.8z"/>
		<path opacity="0.3" fill="#EAB88B" enable-background="new    " d="M34,128.2h104.8c4.5,0,8.4-2.9,9.5-7.1
			c0.2,0.8,0.3,1.8,0.3,2.7c0,5.4-4.4,10-9.9,10H34c-5.4-0.1-9.9-4.5-9.9-9.9c0-0.9,0.1-1.9,0.3-2.8C25.6,125.3,29.4,128.2,34,128.2
			z"/>
	</g>
	<g>
		<path fill="#F9D6BB" d="M148.6,154.3L148.6,154.3c0-5.4-4.4-9.9-9.9-9.9H40.9c-5.4,0-9.9,4.4-9.9,9.9l0,0c0,5.4,4.4,9.9,9.9,9.9
			h97.9C144.3,164.1,148.6,159.8,148.6,154.3z"/>
		<path opacity="0.3" fill="#EAB88B" enable-background="new    " d="M40.9,158.5h97.9c4.5,0,8.4-3.2,9.5-7.4
			c0.2,0.8,0.3,1.9,0.3,2.8c0,5.4-4.4,10.1-9.9,10.1H40.9c-5.4,0-9.9-4.7-9.9-10.1c0-0.9,0.1-1.8,0.3-2.6
			C32.5,155.5,36.3,158.5,40.9,158.5z"/>
	</g>
	<g>
		<path fill="#F9D6BB" d="M148.6,185.2L148.6,185.2c0-5.4-4.4-9.9-9.9-9.9h-91c-5.4,0-9.9,4.4-9.9,9.9l0,0c0,5.4,4.4,9.9,9.9,9.9h91
			C144.3,195.1,148.6,190.6,148.6,185.2z"/>
		<path opacity="0.3" fill="#EAB88B" enable-background="new    " d="M47.8,189.5h91c4.5,0,8.4-3,9.5-7.2c0.2,0.8,0.3,1.9,0.3,2.7
			c0,5.4-4.4,10.1-9.9,10.1h-91c-5.4,0-9.9-4.5-9.9-10c0-0.9,0.1-1.9,0.3-2.7C39.4,186.6,43.2,189.5,47.8,189.5z"/>
	</g>
	<path fill="#F9D6BB" d="M207.5,109L207.5,109c4.5-4.5,4.5-11.7,0-16.2L147,32.3c-4.5-4.5-11.7-4.5-16.2,0l0,0
		c-4.5,4.5-4.5,11.7,0,16.2l60.4,60.4C195.7,113.4,203,113.4,207.5,109z"/>
	<path opacity="0.3" fill="#EAB88B" enable-background="new    " d="M130.8,32.3L130.8,32.3c0.6-0.6,1.2-1.1,1.9-1.5
		c-2.8,4.4-2.3,10.4,1.5,14.3l60.4,60.4c3.9,3.9,9.9,4.4,14.3,1.5c-0.4,0.7-1,1.3-1.5,1.9l0,0c-4.5,4.5-11.7,4.5-16.2,0l-60.4-60.4
		C126.3,44.1,126.3,36.8,130.8,32.3z"/>
	<path fill="#F9D6BB" d="M122.9,195.1h84.8c3.8,0,6.9-3.1,6.9-6.9V111c0-15.2-12.3-27.6-27.6-27.6h-64.1L122.9,195.1L122.9,195.1z"
		/>
	<rect x="209" y="111.7" fill="#F9D6BB" width="211" height="76.5"/>
	<rect x="214.6" y="174.4" opacity="0.3" fill="#EAB88B" enable-background="new    " width="205.4" height="13.8"/>
	<path opacity="0.3" fill="#EAB88B" enable-background="new    " d="M160.2,102.6c-0.9,3-1.4,6.1-1.4,9.3
		c0,17.8,14.4,32.2,32.2,32.2c3.2,0,6.3-0.5,9.3-1.4c-4.6,3.1-10.1,4.9-16.1,4.9c-2.1,0-4.2-0.2-6.2-0.7
		c-8.9,2.1-15.6,10.1-15.6,19.6c0,2,0.3,4,0.8,5.9h-21.4v-69.8H160.2z"/>
	<rect x="221.7" y="109.7" fill="#534741" width="26.2" height="81.5"/>
	<rect x="221.7" y="177.3" opacity="0.3" fill="#33353A" enable-background="new    " width="26.2" height="13.8"/>
	<rect x="258.9" y="108" fill="#FFFFFF" width="161.1" height="92.5"/>
	<rect x="270.7" y="105.9" fill="#EFEBEA" width="149.3" height="101.4"/>
	<g>
		<defs>
			<rect id="SVGID_1_" x="270.7" y="105.9" width="149.3" height="101.4"/>
		</defs>
		<clipPath id="SVGID_2_">
			<use xlink:href="#SVGID_1_"  overflow="visible"/>
		</clipPath>
		<g clip-path="url(#SVGID_2_)">
			<g opacity="0.3" enable-background="new    ">
				
					<rect x="296" y="109.6" transform="matrix(0.7071 -0.7071 0.7071 0.7071 -55.3541 270.4872)" fill="#91A2B7" width="5.7" height="185"/>
				
					<rect x="310.1" y="95.4" transform="matrix(0.7071 -0.7071 0.7071 0.7071 -41.212 276.3451)" fill="#91A2B7" width="5.7" height="185"/>
				
					<rect x="317.2" y="88.3" transform="matrix(0.7071 -0.7071 0.7071 0.7071 -34.1409 279.274)" fill="#91A2B7" width="5.7" height="185"/>
				
					<rect x="331.4" y="74.2" transform="matrix(0.7071 -0.7071 0.7071 0.7071 -19.9988 285.1319)" fill="#91A2B7" width="5.7" height="185"/>
				
					<rect x="359.6" y="45.9" transform="matrix(0.7071 -0.7071 0.7071 0.7071 8.2855 296.8476)" fill="#91A2B7" width="5.7" height="185"/>
				
					<rect x="373.8" y="31.8" transform="matrix(0.7071 -0.7071 0.7071 0.7071 22.4277 302.7055)" fill="#91A2B7" width="5.7" height="185"/>
				
					<rect x="380.8" y="24.7" transform="matrix(0.7071 -0.7071 0.7071 0.7071 29.4987 305.6344)" fill="#91A2B7" width="5.7" height="185"/>
				
					<rect x="395" y="10.6" transform="matrix(0.7071 -0.7071 0.7071 0.7071 43.6409 311.4922)" fill="#91A2B7" width="5.7" height="185"/>
				
					<rect x="335.5" y="60.1" transform="matrix(0.7071 -0.7071 0.7071 0.7071 -5.8566 290.9897)" fill="#91A2B7" width="25.7" height="185"/>
			</g>
			<g opacity="0.3" enable-background="new    ">
				
					<rect x="296" y="10.6" transform="matrix(0.7071 0.7071 -0.7071 0.7071 160.4046 -181.117)" fill="#91A2B7" width="5.7" height="185"/>
				
					<rect x="310.1" y="24.7" transform="matrix(0.7071 0.7071 -0.7071 0.7071 174.5467 -186.9749)" fill="#91A2B7" width="5.7" height="185"/>
				
					<rect x="317.2" y="31.8" transform="matrix(0.7071 0.7071 -0.7071 0.7071 181.6178 -189.9038)" fill="#91A2B7" width="5.7" height="185"/>
				
					<rect x="331.4" y="45.9" transform="matrix(0.7071 0.7071 -0.7071 0.7071 195.7599 -195.7617)" fill="#91A2B7" width="5.7" height="185"/>
				
					<rect x="359.6" y="74.2" transform="matrix(0.7071 0.7071 -0.7071 0.7071 224.0442 -207.4774)" fill="#91A2B7" width="5.7" height="185"/>
				
					<rect x="373.8" y="88.3" transform="matrix(0.7071 0.7071 -0.7071 0.7071 238.1863 -213.3353)" fill="#91A2B7" width="5.7" height="185"/>
				
					<rect x="380.8" y="95.4" transform="matrix(0.7071 0.7071 -0.7071 0.7071 245.2574 -216.2642)" fill="#91A2B7" width="5.7" height="185"/>
				
					<rect x="395" y="109.6" transform="matrix(0.7071 0.7071 -0.7071 0.7071 259.3995 -222.1221)" fill="#91A2B7" width="5.7" height="185"/>
				
					<rect x="335.5" y="60.1" transform="matrix(0.7071 0.7071 -0.7071 0.7071 209.9021 -201.6196)" fill="#91A2B7" width="25.7" height="185"/>
			</g>
		</g>
	</g>
	<rect x="270.7" y="172.8" opacity="0.3" fill="#33353A" enable-background="new    " width="149.3" height="34.5"/>
	<rect x="265.8" y="108" opacity="0.3" fill="#91A2B7" enable-background="new    " width="4.8" height="92.5"/>
	<rect x="252.9" y="111.7" opacity="0.3" fill="#EAB88B" enable-background="new    " width="6.1" height="76.5"/>
	<rect x="218.2" y="111.7" opacity="0.3" fill="#EAB88B" enable-background="new    " width="3.5" height="76.5"/>
</g>
</svg>
